# xmcd
#
# Track frame offsets: 
#        150
#        9861
#        31071
#        47643
#        65601
#        81627
#        101746
#        113121
#        128443
#        147203
#        163626
#        175447
#        190223
#        210380
#        222876
#        244525
#
# Disc length: 3356 seconds
#
# Revision: 2
# Processed by: cddbd v1.5.2PL0 Copyright (c) Steve Scherf et al.
# Submitted via: ExactAudioCopy v0.95b4
#
DISCID=d60d1a10
DTITLE=Faderhead - Black Friday
DYEAR=2010
DGENRE=Industrial
TTITLE0=Obnoxiated
TTITLE1=Escape From The Machine
TTITLE2=Hot Bath And A Cold Razor
TTITLE3=The Moth And The Fire
TTITLE4=Baby Firefly
TTITLE5=Destroy Improve Rebuild
TTITLE6=Aim To Misbehave
TTITLE7=Pussy Rules (Feat. Shaolyn)
TTITLE8=The Way To Fuck God
TTITLE9=Beautiful Freak
TTITLE10=The Bitch I Love To  Hate (Feat. Chris Pohl)
TTITLE11=Do You Know Who I Think I Am? (Feat. Ted Phelps)
TTITLE12=Scumfucker
TTITLE13=Corpus Crisis
TTITLE14=Crashkid
TTITLE15=Regaining Unconsciousness
EXTD=
EXTT0=
EXTT1=
EXTT2=
EXTT3=
EXTT4=
EXTT5=
EXTT6=
EXTT7=
EXTT8=
EXTT9=
EXTT10=
EXTT11=
EXTT12=
EXTT13=
EXTT14=
EXTT15=
PLAYORDER=
